<svg width="136" height="36" viewBox="0 0 136 36" fill="none" xmlns="http://www.w3.org/2000/svg">
<path d="M19.2446 1.38143C19.6389 2.09492 20.0424 3.09596 20.0424 4.21294C20.0424 5.32993 19.6389 6.33097 19.2446 7.04446C19.0466 7.40275 18.8487 7.69273 18.6997 7.89373C18.6252 7.99433 18.5627 8.07291 18.5184 8.12689C18.4962 8.15389 18.4785 8.17476 18.4662 8.18917L18.4517 8.20593L18.4475 8.21061L18.4463 8.21201L18.4457 8.21265L18.2553 8.0427C18.4456 8.21278 18.4457 8.21272 18.4457 8.21265L18.2552 8.42589L18.0647 8.21265L18.0641 8.21201L18.0629 8.21061L18.0588 8.20593L18.0443 8.18917C18.0319 8.17476 18.0142 8.15389 17.9921 8.12689C17.9477 8.07291 17.8853 7.99433 17.8107 7.89373C17.6618 7.69273 17.4638 7.40275 17.2658 7.04446C16.8715 6.33097 16.468 5.32993 16.468 4.21294C16.468 3.09596 16.8715 2.09492 17.2658 1.38143C17.4638 1.02314 17.6618 0.733159 17.8107 0.532157C17.8853 0.431561 17.9477 0.352984 17.9921 0.299001C18.0142 0.272002 18.0319 0.251134 18.0443 0.236716L18.0588 0.21996L18.0629 0.215282L18.0641 0.21388L18.0647 0.213241L18.2552 0.383212L18.4457 0.213241L18.4463 0.21388L18.4475 0.215282L18.4517 0.21996L18.4662 0.236716C18.4785 0.251134 18.4962 0.272002 18.5184 0.299001C18.5627 0.352984 18.6252 0.431561 18.6997 0.532157C18.8487 0.733159 19.0466 1.02314 19.2446 1.38143Z" fill="#13AA57"/>
<path d="M18.4457 0.213241C18.4457 0.213171 18.4456 0.213108 18.2552 0.383212C18.0648 0.213108 18.0648 0.213171 18.0647 0.213241L18.2552 0L18.4457 0.213241Z" fill="#13AA57"/>
<path d="M16.2287 15.7181L16.2226 15.986L16.2216 15.986L16.2191 15.9859L16.2106 15.9857L16.1796 15.9845C16.1529 15.9834 16.1142 15.9815 16.0647 15.9783C15.9657 15.972 15.8233 15.9606 15.6463 15.9403C15.2926 15.8997 14.7996 15.8232 14.2393 15.6797C13.1229 15.3936 11.7173 14.8354 10.6231 13.7411C9.52884 12.6469 8.97057 11.2413 8.68452 10.1249C8.54096 9.56462 8.46453 9.07158 8.42392 8.71791C8.4036 8.54094 8.3922 8.39847 8.38587 8.29948C8.3827 8.24997 8.3808 8.2113 8.37967 8.18458L8.37852 8.1536L8.37827 8.14509L8.37821 8.14263L8.37819 8.14185L8.64619 8.13552L8.65225 7.8675L8.65331 7.86753L8.65577 7.86759L8.66428 7.86784L8.69526 7.869C8.72197 7.87012 8.76064 7.87202 8.81015 7.87519C8.90915 7.88152 9.05161 7.89292 9.22859 7.91324C9.58226 7.95385 10.0753 8.03028 10.6356 8.17384C11.752 8.45989 13.1576 9.01816 14.2518 10.1124C15.346 11.2066 15.9043 12.6122 16.1903 13.7286C16.3339 14.2889 16.4103 14.7819 16.451 15.1356C16.4713 15.3126 16.4827 15.455 16.489 15.554C16.4922 15.6035 16.4941 15.6422 16.4952 15.6689L16.4964 15.6999L16.4966 15.7084L16.4967 15.7109L16.4967 15.7117L16.2287 15.7181C16.4967 15.7122 16.4967 15.7118 16.4967 15.7117L16.5028 15.9921L16.2226 15.986C16.2227 15.986 16.2228 15.986 16.2287 15.7181Z" fill="#13AA57"/>
<path d="M8.65225 7.8675C8.65214 7.8675 8.65205 7.8675 8.64619 8.13552C8.37818 8.14137 8.37819 8.14174 8.37819 8.14185L8.37206 7.86138L8.65225 7.8675Z" fill="#13AA57"/>
<path fill-rule="evenodd" clip-rule="evenodd" d="M19.8861 19.1015L19.8871 19.1015L19.8896 19.1016L19.8981 19.1018L19.9291 19.103C19.9558 19.1041 19.9945 19.106 20.044 19.1092C20.143 19.1155 20.2854 19.1269 20.4624 19.1472C20.8161 19.1878 21.3091 19.2643 21.8694 19.4078C22.9858 19.6939 24.3914 20.2521 25.4856 21.3464C26.5798 22.4406 27.1381 23.8462 27.4242 24.9626C27.5677 25.5229 27.6442 26.0159 27.6848 26.3696C27.7051 26.5466 27.7165 26.689 27.7228 26.788C27.726 26.8375 27.7279 26.8762 27.729 26.9029L27.7302 26.9339L27.7304 26.9424L27.7305 26.9457L27.7366 27.2261L27.4564 27.22L27.4554 27.22L27.4529 27.2199L27.4444 27.2197L27.4134 27.2185C27.3867 27.2174 27.348 27.2155 27.2985 27.2123C27.1995 27.206 27.0571 27.1946 26.8801 27.1743C26.5264 27.1337 26.0334 27.0572 25.4731 26.9137C24.3567 26.6276 22.9511 26.0693 21.8569 24.9751C20.7626 23.8809 20.2044 22.4753 19.9183 21.3589C19.7748 20.7986 19.6983 20.3056 19.6577 19.9519C19.6374 19.7749 19.626 19.6325 19.6197 19.5335C19.6165 19.484 19.6146 19.4453 19.6135 19.4186L19.6123 19.3876L19.6121 19.3791L19.612 19.3766L19.612 19.3758L19.88 19.3695L19.8861 19.1015ZM27.4625 26.9521L27.4564 27.22C27.4565 27.22 27.4566 27.22 27.4625 26.9521Z" fill="#13AA57"/>
<path d="M19.8861 19.1015C19.886 19.1015 19.8859 19.1015 19.88 19.3695C19.612 19.3754 19.612 19.3757 19.612 19.3758L19.6059 19.0954L19.8861 19.1015Z" fill="#13AA57"/>
<path fill-rule="evenodd" clip-rule="evenodd" d="M14.2518 24.9752C15.346 23.881 15.9043 22.4753 16.1903 21.359C16.3339 20.7987 16.4103 20.3057 16.4509 19.952C16.4712 19.775 16.4826 19.6325 16.489 19.5335C16.4921 19.484 16.494 19.4454 16.4951 19.4187L16.4963 19.3877L16.4966 19.3792L16.4966 19.3767L16.4966 19.3756L16.5028 19.0955L16.2223 19.1016L16.2215 19.1016L16.2191 19.1017L16.2105 19.1019L16.1796 19.1031C16.1528 19.1042 16.1142 19.1061 16.0647 19.1093C15.9657 19.1156 15.8232 19.127 15.6462 19.1473C15.2926 19.1879 14.7995 19.2644 14.2392 19.4079C13.1229 19.694 11.7172 20.2522 10.623 21.3464C9.52879 22.4407 8.97052 23.8463 8.68447 24.9627C8.54091 25.523 8.46448 26.016 8.42387 26.3697C8.40355 26.5467 8.39215 26.6891 8.38582 26.7881C8.38265 26.8376 8.38075 26.8763 8.37963 26.903L8.37847 26.934L8.37822 26.9425L8.37816 26.945L8.37813 26.946L8.37201 27.2262L8.65248 27.2201L8.65572 27.22L8.66423 27.2197L8.69521 27.2186C8.72192 27.2175 8.76059 27.2156 8.8101 27.2124C8.9091 27.2061 9.05157 27.1947 9.22854 27.1743C9.58221 27.1337 10.0752 27.0573 10.6355 26.9137C11.7519 26.6277 13.1575 26.0694 14.2518 24.9752ZM8.65248 27.2201L8.64617 26.9521C8.65203 27.2201 8.65237 27.2201 8.65248 27.2201ZM8.64617 26.9521L8.37813 26.946C8.37813 26.9461 8.37816 26.9462 8.64617 26.9521ZM16.2223 19.1016L16.2286 19.3696C16.2228 19.1016 16.2224 19.1016 16.2223 19.1016ZM16.2286 19.3696L16.4966 19.3756C16.4966 19.3755 16.4966 19.3754 16.2286 19.3696Z" fill="#13AA57"/>
<path d="M27.4626 8.13562L27.7305 8.14165L27.7305 8.14271L27.7305 8.14517L27.7302 8.15368L27.729 8.18466C27.7279 8.21138 27.726 8.25005 27.7229 8.29956C27.7165 8.39855 27.7051 8.54102 27.6848 8.71799C27.6442 9.07166 27.5678 9.5647 27.4242 10.125C27.1381 11.2414 26.5799 12.647 25.4857 13.7412C24.3914 14.8354 22.9858 15.3937 21.8694 15.6798C21.3091 15.8233 20.8161 15.8997 20.4624 15.9404C20.2855 15.9607 20.143 15.9721 20.044 15.9784C19.9945 15.9816 19.9558 15.9835 19.9291 15.9846L19.8981 15.9858L19.8896 15.986L19.8872 15.9861L19.8864 15.9861L19.88 15.7181L19.612 15.712L19.6121 15.711L19.6121 15.7085L19.6124 15.7L19.6135 15.669C19.6146 15.6423 19.6166 15.6036 19.6197 15.5541C19.6261 15.4551 19.6374 15.3127 19.6578 15.1357C19.6984 14.782 19.7748 14.289 19.9184 13.7287C20.2044 12.6123 20.7627 11.2067 21.8569 10.1125C22.9511 9.01824 24.3568 8.45998 25.4732 8.17393C26.0334 8.03037 26.5265 7.95394 26.8801 7.91332C27.0571 7.893 27.1996 7.88161 27.2986 7.87527C27.3481 7.87211 27.3867 7.8702 27.4135 7.86908L27.4444 7.86792L27.453 7.86767L27.4554 7.86761L27.4562 7.86759L27.4626 8.13562Z" fill="#13AA57"/>
<path d="M27.4626 8.13562C27.4567 7.8676 27.4563 7.86759 27.4562 7.86759L27.7367 7.86146L27.7305 8.14165C27.7305 8.14155 27.7306 8.14148 27.4626 8.13562Z" fill="#13AA57"/>
<path d="M19.612 15.712C19.612 15.7121 19.612 15.7122 19.88 15.7181C19.8859 15.9861 19.8863 15.9861 19.8864 15.9861L19.6059 15.9922L19.612 15.712Z" fill="#13AA57"/>
<path d="M18.734 28.9555C19.1283 29.669 19.5318 30.6701 19.5318 31.7871C19.5318 32.904 19.1283 33.9051 18.734 34.6186C18.536 34.9769 18.3381 35.2668 18.1891 35.4678C18.1146 35.5684 18.0521 35.647 18.0078 35.701L17.991 35.7213L17.9691 35.7474L17.9556 35.7633L17.9411 35.78L17.937 35.7847L17.9357 35.7861L17.9351 35.7868L17.7446 35.6168L17.926 35.7787L17.9351 35.7868L17.7446 36L17.5541 35.7868L17.5535 35.7861L17.5523 35.7847L17.5482 35.78L17.5337 35.7633C17.5213 35.7489 17.5036 35.728 17.4815 35.701C17.4372 35.647 17.3747 35.5684 17.3001 35.4678C17.1512 35.2668 16.9532 34.9769 16.7552 34.6186C16.3609 33.9051 15.9574 32.904 15.9574 31.7871C15.9574 30.6701 16.3609 29.669 16.7552 28.9555C16.9532 28.5972 17.1512 28.3073 17.3001 28.1063C17.3747 28.0057 17.4372 27.9271 17.4815 27.8731C17.5036 27.8461 17.5213 27.8252 17.5337 27.8108L17.5482 27.7941L17.5523 27.7894L17.5535 27.788L17.5541 27.7874L17.7446 27.9573L17.9351 27.7874L17.9357 27.788L17.937 27.7894L17.9411 27.7941L17.9556 27.8108C17.968 27.8252 17.9856 27.8461 18.0078 27.8731C18.0521 27.9271 18.1146 28.0057 18.1891 28.1063C18.3381 28.3073 18.536 28.5972 18.734 28.9555Z" fill="#13AA57"/>
<path d="M17.9351 27.7874C17.9351 27.7873 17.935 27.7872 17.7446 27.9573C17.5542 27.7872 17.5542 27.7873 17.5541 27.7874L17.7446 27.5741L17.9351 27.7874Z" fill="#13AA57"/>
<path fill-rule="evenodd" clip-rule="evenodd" d="M35.7868 17.5541L35.7861 17.5535L35.7847 17.5523L35.78 17.5482L35.7633 17.5336C35.7489 17.5213 35.728 17.5036 35.701 17.4815C35.647 17.4371 35.5684 17.3747 35.4678 17.3001C35.2668 17.1512 34.9769 16.9532 34.6186 16.7552C33.9051 16.3609 32.904 15.9574 31.7871 15.9574C30.6701 15.9574 29.669 16.3609 28.9555 16.7552C28.5972 16.9532 28.3073 17.1512 28.1063 17.3001C28.0057 17.3747 27.9271 17.4371 27.8731 17.4815C27.8461 17.5036 27.8252 17.5213 27.8108 17.5336L27.7941 17.5482L27.7894 17.5523L27.788 17.5535L27.7874 17.5541L27.5741 17.7446L27.7874 17.9351L27.788 17.9357L27.7894 17.9369L27.7941 17.941L27.8108 17.9556C27.8252 17.9679 27.8461 17.9856 27.8731 18.0078C27.9271 18.0521 28.0057 18.1145 28.1063 18.1891C28.3073 18.338 28.5972 18.536 28.9555 18.734C29.669 19.1283 30.6701 19.5318 31.7871 19.5318C32.904 19.5318 33.9051 19.1283 34.6186 18.734C34.9769 18.536 35.2668 18.338 35.4678 18.1891C35.5684 18.1145 35.647 18.0521 35.701 18.0078C35.7137 17.9973 35.7251 17.9879 35.735 17.9795L35.745 17.9711L35.7633 17.9556L35.78 17.941L35.7847 17.9369L35.7861 17.9357L35.7868 17.9351L36 17.7446L35.7868 17.5541ZM27.9573 17.7446L27.7874 17.5541C27.7873 17.5542 27.7872 17.5542 27.9573 17.7446ZM35.7868 17.5541L35.6168 17.7446C35.7869 17.5542 35.7868 17.5542 35.7868 17.5541ZM35.6168 17.7446L35.7698 17.916L35.7812 17.9288L35.7868 17.9351L35.6168 17.7446ZM27.9573 17.7446C27.7872 17.935 27.7873 17.9351 27.7874 17.9351L27.9573 17.7446Z" fill="#13AA57"/>
<path fill-rule="evenodd" clip-rule="evenodd" d="M0.213241 18.0647L0 18.2552L0.213241 18.4457L0.21388 18.4463L0.215282 18.4475L0.21996 18.4516L0.236716 18.4662C0.251134 18.4785 0.272002 18.4962 0.299001 18.5183C0.352984 18.5627 0.431561 18.6251 0.532157 18.6997C0.733159 18.8486 1.02314 19.0466 1.38143 19.2446C2.09492 19.6389 3.09596 20.0424 4.21294 20.0424C5.32993 20.0424 6.33097 19.6389 7.04446 19.2446C7.40275 19.0466 7.69273 18.8486 7.89373 18.6997C7.99433 18.6251 8.07291 18.5627 8.12689 18.5183C8.15389 18.4962 8.17476 18.4785 8.18917 18.4662L8.20593 18.4516L8.21061 18.4475L8.21201 18.4463L8.21265 18.4457L8.42589 18.2552L8.21265 18.0647L8.21201 18.0641L8.21061 18.0629L8.20593 18.0588L8.18917 18.0442C8.17476 18.0319 8.15389 18.0142 8.12689 17.9921C8.07291 17.9477 7.99433 17.8853 7.89373 17.8107C7.69273 17.6618 7.40275 17.4638 7.04446 17.2658C6.33097 16.8715 5.32993 16.468 4.21294 16.468C3.09596 16.468 2.09492 16.8715 1.38143 17.2658C1.02314 17.4638 0.733159 17.6618 0.532157 17.8107C0.431561 17.8853 0.352984 17.9477 0.299001 17.9921C0.272002 18.0142 0.251134 18.0319 0.236716 18.0442L0.21996 18.0588L0.215282 18.0629L0.21388 18.0641L0.213241 18.0647ZM0.213241 18.4457L0.383169 18.2553C0.213065 18.4457 0.213171 18.4457 0.213241 18.4457ZM8.21265 18.0647L8.04268 18.2552C8.21278 18.0648 8.21272 18.0647 8.21265 18.0647ZM8.04268 18.2552L8.21265 18.4457C8.21272 18.4457 8.21278 18.4456 8.04268 18.2552ZM0.213241 18.0647C0.213171 18.0647 0.213065 18.0649 0.383169 18.2553L0.213241 18.0647Z" fill="#13AA57"/>
<path d="M42 18C42 16.7942 42.2737 15.7391 42.821 14.8348C43.3683 13.9188 44.1055 13.2174 45.0326 12.7304C45.9709 12.2435 47.0097 12 48.1491 12C49.3554 12 50.3663 12.2667 51.1817 12.8C51.9971 13.3333 52.6226 14.0174 53.0583 14.8522L50.2099 16.3652C50.02 15.9942 49.7408 15.6928 49.3722 15.4609C49.0147 15.2174 48.607 15.0957 48.1491 15.0957C47.6241 15.0957 47.1549 15.2232 46.7416 15.4783C46.3284 15.7333 46.0044 16.087 45.7699 16.5391C45.5465 16.9797 45.4348 17.4667 45.4348 18C45.4348 18.5333 45.5465 19.0261 45.7699 19.4783C46.0044 19.9188 46.3284 20.2667 46.7416 20.5217C47.1549 20.7768 47.6241 20.9043 48.1491 20.9043C48.5065 20.9043 48.8472 20.858 49.1711 20.7652C49.495 20.6725 49.7631 20.5449 49.9753 20.3826V19.8783H47.814V16.9913H53.2593V21.6522C51.8966 23.2174 50.1932 24 48.1491 24C47.0209 24 45.9877 23.7565 45.0494 23.2696C44.1111 22.771 43.3683 22.0696 42.821 21.1652C42.2737 20.2609 42 19.2058 42 18Z" fill="#13AA57"/>
<path d="M59.3679 20.0696H58.1448V23.7913H54.7603V12.1913H60.7251C61.5628 12.1913 62.2833 12.371 62.8865 12.7304C63.5008 13.0783 63.9644 13.5536 64.2771 14.1565C64.5899 14.7594 64.7463 15.4319 64.7463 16.1739C64.7463 17.0783 64.5452 17.8203 64.1431 18.4C63.7521 18.9797 63.283 19.4087 62.7357 19.687L64.763 23.7913H60.9094L59.3679 20.0696ZM61.3115 16.1217C61.3115 15.8203 61.1998 15.5768 60.9764 15.3913C60.7642 15.2058 60.5073 15.113 60.2057 15.113H58.1448V17.1478H60.2057C60.5073 17.1478 60.7642 17.0551 60.9764 16.8696C61.1998 16.6841 61.3115 16.4348 61.3115 16.1217Z" fill="#13AA57"/>
<path d="M66.1157 12.1913H74.5937V15.113H69.5002V16.4696H74.4764V19.3913H69.5002V20.8696H74.5937V23.7913H66.1157V12.1913Z" fill="#13AA57"/>
<path d="M76.0967 12.1913H84.5747V15.113H79.4812V16.4696H84.4574V19.3913H79.4812V20.8696H84.5747V23.7913H76.0967V12.1913Z" fill="#13AA57"/>
<path d="M89.4621 17.5652V23.7913H86.0776V12.1913H89.5627L93.4498 18.0348V12.1913H96.8343V23.7913H93.5838L89.4621 17.5652Z" fill="#13AA57"/>
<path d="M104.106 24C102.978 24 101.95 23.7507 101.023 23.2522C100.096 22.742 99.3643 22.029 98.8281 21.113C98.3032 20.1971 98.0407 19.1594 98.0407 18C98.0407 16.829 98.3032 15.7913 98.8281 14.887C99.3643 13.971 100.09 13.2638 101.006 12.7652C101.933 12.2551 102.967 12 104.106 12C105.48 12 106.58 12.3246 107.407 12.9739C108.244 13.6232 108.864 14.4232 109.266 15.3739L106.351 16.7826C106.206 16.3072 105.927 15.9072 105.513 15.5826C105.1 15.258 104.631 15.0957 104.106 15.0957C103.603 15.0957 103.151 15.2232 102.749 15.4783C102.347 15.7333 102.034 16.087 101.811 16.5391C101.587 16.9797 101.475 17.4667 101.475 18C101.475 18.5333 101.587 19.0261 101.811 19.4783C102.034 19.9188 102.347 20.2667 102.749 20.5217C103.151 20.7768 103.603 20.9043 104.106 20.9043C104.631 20.9043 105.1 20.742 105.513 20.4174C105.927 20.0928 106.206 19.6928 106.351 19.2174L109.266 20.6087C108.864 21.5478 108.244 22.3478 107.407 23.0087C106.569 23.6696 105.469 24 104.106 24Z" fill="#13AA57"/>
<path d="M110.326 12.1913H113.711V23.7913H110.326V12.1913Z" fill="#13AA57"/>
<path d="M117.909 15.2522H114.91V12.1913H124.276V15.2522H121.294V23.7913H117.909V15.2522Z" fill="#13AA57"/>
<path d="M128.46 19.1826L124.272 12.1913H128.075L130.153 16.1043L132.197 12.1913H136L131.845 19.1826V23.7913H128.46V19.1826Z" fill="#13AA57"/>
</svg>