<svg xmlns="http://www.w3.org/2000/svg" width="32" height="32" viewBox="0 0 32 32">
  <g fill="none" fill-rule="evenodd">
    <path fill="#FFC107" d="M16,0 C7.163,0 0,7.163 0,16 C0,24.837 7.163,32 16,32 C24.837,32 32,24.837 32,16 C32,7.163 24.837,0 16,0 Z"/>
    <path fill="#FFFFFF" d="M16,7 C12.134,7 9,10.134 9,14 C9,19.25 16,25 16,25 C16,25 23,19.25 23,14 C23,10.134 19.866,7 16,7 Z M16,16.5 C14.619,16.5 13.5,15.381 13.5,14 C13.5,12.619 14.619,11.5 16,11.5 C17.381,11.5 18.5,12.619 18.5,14 C18.5,15.381 17.381,16.5 16,16.5 Z"/>
  </g>
</svg>
